<svg width="34" height="22" viewBox="0 0 34 22" fill="none" xmlns="http://www.w3.org/2000/svg">
<path d="M18.4738 21.5C7.19894 21.5 0.767958 13.6171 0.5 0.5H6.14772C6.33323 10.1276 10.4969 14.2057 13.7948 15.0465V0.5H19.1127V8.8033C22.3695 8.44595 25.7911 4.66216 26.9453 0.5H32.2633C31.8283 2.65862 30.9613 4.70248 29.7164 6.50375C28.4715 8.30502 26.8756 9.82495 25.0284 10.9685C27.0903 12.0133 28.9115 13.4922 30.3718 15.3076C31.8321 17.123 32.8983 19.2335 33.5 21.5H27.6462C27.106 19.5314 26.0081 17.7692 24.4901 16.4342C22.9721 15.0993 21.1015 14.2509 19.1127 13.9955V21.5H18.4738Z" fill="#0AF9FA"/>
</svg>
