<svg width="1440" height="2052" viewBox="0 0 1440 2052" fill="none" xmlns="http://www.w3.org/2000/svg">
<g opacity="0.25">
<path d="M-44.9512 126.914C119.217 209.288 403.507 389.854 227.325 453.122C7.09747 532.207 458.79 892.027 773.357 967.447C1204.68 1070.86 1346.56 1094.52 1754.06 1355.62C2080.07 1564.5 2145.01 1773.3 2136.73 1851.59" stroke="#BDFEFF"/>
<path d="M-387.951 200.914C-223.783 283.288 60.5074 463.854 -115.675 527.122C-335.903 606.207 115.79 966.027 430.357 1041.45C861.68 1144.86 1003.56 1168.52 1411.06 1429.62C1737.07 1638.5 1802.01 1847.3 1793.73 1925.59" stroke="#0AF9FA"/>
<path d="M-60.9512 130.914C103.217 213.288 387.507 393.854 211.325 457.122C-8.90253 536.207 442.79 896.027 757.357 971.447C1188.68 1074.86 1330.56 1098.52 1738.06 1359.62C2064.07 1568.5 2129.01 1777.3 2120.73 1855.59" stroke="#B5FEFF"/>
<path d="M-77.9512 133.914C86.2169 216.288 370.507 396.854 194.325 460.122C-25.9025 539.207 425.79 899.027 740.357 974.447C1171.68 1077.86 1313.56 1101.52 1721.06 1362.62C2047.07 1571.5 2112.01 1780.3 2103.73 1858.59" stroke="#ACFEFF"/>
<path d="M-93.9512 137.914C70.2169 220.288 354.507 400.854 178.325 464.122C-41.9025 543.207 409.79 903.027 724.357 978.447C1155.68 1081.86 1297.56 1105.52 1705.06 1366.62C2031.07 1575.5 2096.01 1784.3 2087.73 1862.59" stroke="#A4FEFE"/>
<path d="M-109.951 140.914C54.2169 223.288 338.507 403.854 162.325 467.122C-57.9025 546.207 393.79 906.027 708.357 981.447C1139.68 1084.86 1281.56 1108.52 1689.06 1369.62C2015.07 1578.5 2080.01 1787.3 2071.73 1865.59" stroke="#9BFDFE"/>
<path d="M-126.951 144.914C37.2169 227.288 321.507 407.854 145.325 471.122C-74.9025 550.207 376.79 910.027 691.357 985.447C1122.68 1088.86 1264.56 1112.52 1672.06 1373.62C1998.07 1582.5 2063.01 1791.3 2054.73 1869.59" stroke="#93FDFE"/>
<path d="M-142.951 147.914C21.2169 230.288 305.507 410.854 129.325 474.122C-90.9025 553.207 360.79 913.027 675.357 988.447C1106.68 1091.86 1248.56 1115.52 1656.06 1376.62C1982.07 1585.5 2047.01 1794.3 2038.73 1872.59" stroke="#8AFDFE"/>
<path d="M-158.951 151.914C5.21689 234.288 289.507 414.854 113.325 478.122C-106.903 557.207 344.79 917.027 659.357 992.447C1090.68 1095.86 1232.56 1119.52 1640.06 1380.62C1966.07 1589.5 2031.01 1798.3 2022.73 1876.59" stroke="#82FDFD"/>
<path d="M-175.951 154.914C-11.7831 237.288 272.507 417.854 96.3252 481.122C-123.903 560.207 327.79 920.027 642.357 995.447C1073.68 1098.86 1215.56 1122.52 1623.06 1383.62C1949.07 1592.5 2014.01 1801.3 2005.73 1879.59" stroke="#79FCFD"/>
<path d="M-191.951 158.914C-27.7831 241.288 256.507 421.854 80.3252 485.122C-139.903 564.207 311.79 924.027 626.357 999.447C1057.68 1102.86 1199.56 1126.52 1607.06 1387.62C1933.07 1596.5 1998.01 1805.3 1989.73 1883.59" stroke="#70FCFD"/>
<path d="M-207.951 161.914C-43.7831 244.288 240.507 424.854 64.3252 488.122C-155.903 567.207 295.79 927.027 610.357 1002.45C1041.68 1105.86 1183.56 1129.52 1591.06 1390.62C1917.07 1599.5 1982.01 1808.3 1973.73 1886.59" stroke="#68FCFD"/>
<path d="M-223.951 165.914C-59.7831 248.288 224.507 428.854 48.3252 492.122C-171.903 571.207 279.79 931.027 594.357 1006.45C1025.68 1109.86 1167.56 1133.52 1575.06 1394.62C1901.07 1603.5 1966.01 1812.3 1957.73 1890.59" stroke="#5FFCFC"/>
<path d="M-240.951 169.914C-76.7831 252.288 207.507 432.854 31.3252 496.122C-188.903 575.207 262.79 935.027 577.357 1010.45C1008.68 1113.86 1150.56 1137.52 1558.06 1398.62C1884.07 1607.5 1949.01 1816.3 1940.73 1894.59" stroke="#57FBFC"/>
<path d="M-256.951 172.914C-92.7831 255.288 191.507 435.854 15.3252 499.122C-204.903 578.207 246.79 938.027 561.357 1013.45C992.68 1116.86 1134.56 1140.52 1542.06 1401.62C1868.07 1610.5 1933.01 1819.3 1924.73 1897.59" stroke="#4EFBFC"/>
<path d="M-272.951 176.914C-108.783 259.288 175.507 439.854 -0.674781 503.122C-220.903 582.207 230.79 942.027 545.357 1017.45C976.68 1120.86 1118.56 1144.52 1526.06 1405.62C1852.07 1614.5 1917.01 1823.3 1908.73 1901.59" stroke="#46FBFC"/>
<path d="M-289.951 179.914C-125.783 262.288 158.507 442.854 -17.6748 506.122C-237.903 585.207 213.79 945.027 528.357 1020.45C959.68 1123.86 1101.56 1147.52 1509.06 1408.62C1835.07 1617.5 1900.01 1826.3 1891.73 1904.59" stroke="#3DFBFB"/>
<path d="M-305.951 183.914C-141.783 266.288 142.507 446.854 -33.6748 510.122C-253.903 589.207 197.79 949.027 512.357 1024.45C943.68 1127.86 1085.56 1151.52 1493.06 1412.62C1819.07 1621.5 1884.01 1830.3 1875.73 1908.59" stroke="#35FAFB"/>
<path d="M-321.951 186.914C-157.783 269.288 126.507 449.854 -49.6748 513.122C-269.903 592.207 181.79 952.027 496.357 1027.45C927.68 1130.86 1069.56 1154.52 1477.06 1415.62C1803.07 1624.5 1868.01 1833.3 1859.73 1911.59" stroke="#2CFAFB"/>
<path d="M-338.951 190.914C-174.783 273.288 109.507 453.854 -66.6748 517.122C-286.903 596.207 164.79 956.027 479.357 1031.45C910.68 1134.86 1052.56 1158.52 1460.06 1419.62C1786.07 1628.5 1851.01 1837.3 1842.73 1915.59" stroke="#24FAFB"/>
<path d="M-354.951 193.914C-190.783 276.288 93.5074 456.854 -82.6748 520.122C-302.903 599.207 148.79 959.027 463.357 1034.45C894.68 1137.86 1036.56 1161.52 1444.06 1422.62C1770.07 1631.5 1835.01 1840.3 1826.73 1918.59" stroke="#1BFAFA"/>
<path d="M-370.951 197.914C-206.783 280.288 77.5074 460.854 -98.6748 524.122C-318.903 603.207 132.79 963.027 447.357 1038.45C878.68 1141.86 1020.56 1165.52 1428.06 1426.62C1754.07 1635.5 1819.01 1844.3 1810.73 1922.59" stroke="#13F9FA"/>
</g>
</svg>
