<svg width="1440" height="874" viewBox="0 0 1440 874" fill="none" xmlns="http://www.w3.org/2000/svg">
<g opacity="0.25">
<path d="M1470.3 13.9018C1339.91 18.6687 1103.84 61.2032 1202.67 193.206C1326.2 358.209 931.364 491.723 703.86 426.345C391.914 336.702 292.112 297.852 -46.8886 360.878C-318.089 411.3 -417.424 572.491 -433.192 646.784" stroke="#BDFEFF"/>
<path d="M1675.3 226.902C1544.91 231.669 1308.84 274.203 1407.67 406.206C1531.2 571.209 1136.36 704.723 908.86 639.345C596.914 549.702 497.112 510.852 158.111 573.878C-113.089 624.3 -212.424 785.491 -228.192 859.784" stroke="#0AF9FA"/>
<path d="M1480.3 23.9018C1349.91 28.6687 1113.84 71.2032 1212.67 203.206C1336.2 368.209 941.364 501.723 713.86 436.345C401.914 346.702 302.112 307.852 -36.8886 370.878C-308.089 421.3 -407.424 582.491 -423.192 656.784" stroke="#B5FEFF"/>
<path d="M1490.3 33.9018C1359.91 38.6687 1123.84 81.2032 1222.67 213.206C1346.2 378.209 951.364 511.723 723.86 446.345C411.914 356.702 312.112 317.852 -26.8886 380.878C-298.089 431.3 -397.424 592.491 -413.192 666.784" stroke="#ACFEFF"/>
<path d="M1499.3 43.9018C1368.91 48.6687 1132.84 91.2032 1231.67 223.206C1355.2 388.209 960.364 521.723 732.86 456.345C420.914 366.702 321.112 327.852 -17.8886 390.878C-289.089 441.3 -388.424 602.491 -404.192 676.784" stroke="#A4FEFE"/>
<path d="M1509.3 54.9018C1378.91 59.6687 1142.84 102.203 1241.67 234.206C1365.2 399.209 970.364 532.723 742.86 467.345C430.914 377.702 331.112 338.852 -7.8886 401.878C-279.089 452.3 -378.424 613.491 -394.192 687.784" stroke="#9BFDFE"/>
<path d="M1519.3 64.9018C1388.91 69.6687 1152.84 112.203 1251.67 244.206C1375.2 409.209 980.364 542.723 752.86 477.345C440.914 387.702 341.112 348.852 2.1114 411.878C-269.089 462.3 -368.424 623.491 -384.192 697.784" stroke="#93FDFE"/>
<path d="M1529.3 74.9018C1398.91 79.6687 1162.84 122.203 1261.67 254.206C1385.2 419.209 990.364 552.723 762.86 487.345C450.914 397.702 351.112 358.852 12.1114 421.878C-259.089 472.3 -358.424 633.491 -374.192 707.784" stroke="#8AFDFE"/>
<path d="M1538.3 84.9018C1407.91 89.6687 1171.84 132.203 1270.67 264.206C1394.2 429.209 999.364 562.723 771.86 497.345C459.914 407.702 360.112 368.852 21.1114 431.878C-250.089 482.3 -349.424 643.491 -365.192 717.784" stroke="#82FDFD"/>
<path d="M1548.3 94.9018C1417.91 99.6687 1181.84 142.203 1280.67 274.206C1404.2 439.209 1009.36 572.723 781.86 507.345C469.914 417.702 370.112 378.852 31.1114 441.878C-240.089 492.3 -339.424 653.491 -355.192 727.784" stroke="#79FCFD"/>
<path d="M1558.3 104.902C1427.91 109.669 1191.84 152.203 1290.67 284.206C1414.2 449.209 1019.36 582.723 791.86 517.345C479.914 427.702 380.112 388.852 41.1114 451.878C-230.089 502.3 -329.424 663.491 -345.192 737.784" stroke="#70FCFD"/>
<path d="M1568.3 114.902C1437.91 119.669 1201.84 162.203 1300.67 294.206C1424.2 459.209 1029.36 592.723 801.86 527.345C489.914 437.702 390.112 398.852 51.1114 461.878C-220.089 512.3 -319.424 673.491 -335.192 747.784" stroke="#68FCFD"/>
<path d="M1578.3 124.902C1447.91 129.669 1211.84 172.203 1310.67 304.206C1434.2 469.209 1039.36 602.723 811.86 537.345C499.914 447.702 400.112 408.852 61.1114 471.878C-210.089 522.3 -309.424 683.491 -325.192 757.784" stroke="#5FFCFC"/>
<path d="M1587.3 135.902C1456.91 140.669 1220.84 183.203 1319.67 315.206C1443.2 480.209 1048.36 613.723 820.86 548.345C508.914 458.702 409.112 419.852 70.1114 482.878C-201.089 533.3 -300.424 694.491 -316.192 768.784" stroke="#57FBFC"/>
<path d="M1597.3 145.902C1466.91 150.669 1230.84 193.203 1329.67 325.206C1453.2 490.209 1058.36 623.723 830.86 558.345C518.914 468.702 419.112 429.852 80.1114 492.878C-191.089 543.3 -290.424 704.491 -306.192 778.784" stroke="#4EFBFC"/>
<path d="M1607.3 155.902C1476.91 160.669 1240.84 203.203 1339.67 335.206C1463.2 500.209 1068.36 633.723 840.86 568.345C528.914 478.702 429.112 439.852 90.1114 502.878C-181.089 553.3 -280.424 714.491 -296.192 788.784" stroke="#46FBFC"/>
<path d="M1617.3 165.902C1486.91 170.669 1250.84 213.203 1349.67 345.206C1473.2 510.209 1078.36 643.723 850.86 578.345C538.914 488.702 439.112 449.852 100.111 512.878C-171.089 563.3 -270.424 724.491 -286.192 798.784" stroke="#3DFBFB"/>
<path d="M1626.3 175.902C1495.91 180.669 1259.84 223.203 1358.67 355.206C1482.2 520.209 1087.36 653.723 859.86 588.345C547.914 498.702 448.112 459.852 109.111 522.878C-162.089 573.3 -261.424 734.491 -277.192 808.784" stroke="#35FAFB"/>
<path d="M1636.3 185.902C1505.91 190.669 1269.84 233.203 1368.67 365.206C1492.2 530.209 1097.36 663.723 869.86 598.345C557.914 508.702 458.112 469.852 119.111 532.878C-152.089 583.3 -251.424 744.491 -267.192 818.784" stroke="#2CFAFB"/>
<path d="M1646.3 195.902C1515.91 200.669 1279.84 243.203 1378.67 375.206C1502.2 540.209 1107.36 673.723 879.86 608.345C567.914 518.702 468.112 479.852 129.111 542.878C-142.089 593.3 -241.424 754.491 -257.192 828.784" stroke="#24FAFB"/>
<path d="M1656.3 206.902C1525.91 211.669 1289.84 254.203 1388.67 386.206C1512.2 551.209 1117.36 684.723 889.86 619.345C577.914 529.702 478.112 490.852 139.111 553.878C-132.089 604.3 -231.424 765.491 -247.192 839.784" stroke="#1BFAFA"/>
<path d="M1666.3 216.902C1535.91 221.669 1299.84 264.203 1398.67 396.206C1522.2 561.209 1127.36 694.723 899.86 629.345C587.914 539.702 488.112 500.852 149.111 563.878C-122.089 614.3 -221.424 775.491 -237.192 849.784" stroke="#13F9FA"/>
</g>
</svg>
