<svg width="1440" height="791" viewBox="0 0 1440 791" fill="none" xmlns="http://www.w3.org/2000/svg">
<g opacity="0.8">
<path d="M-271 611C-237.121 508.798 -68.2527 325.524 336.186 410.042C740.625 494.561 861.974 331.749 872.094 239.778C874.88 105.375 996.963 -115.613 1463 75.6518" stroke="#BDFEFF"/>
<path d="M-3 790C30.8792 687.798 199.747 504.524 604.186 589.042C1008.62 673.561 1129.97 510.749 1140.09 418.778C1142.88 284.375 1264.96 63.3867 1731 254.652" stroke="#0AF9FA"/>
<path d="M-258 620C-224.121 517.798 -55.2527 334.524 349.186 419.042C753.625 503.561 874.974 340.749 885.094 248.778C887.88 114.375 1009.96 -106.613 1476 84.6518" stroke="#B5FEFF"/>
<path d="M-246 628C-212.121 525.798 -43.2527 342.524 361.186 427.042C765.625 511.561 886.974 348.749 897.094 256.778C899.88 122.375 1021.96 -98.6133 1488 92.6518" stroke="#ACFEFF"/>
<path d="M-233 637C-199.121 534.798 -30.2527 351.524 374.186 436.042C778.625 520.561 899.974 357.749 910.094 265.778C912.88 131.375 1034.96 -89.6133 1501 101.652" stroke="#A4FEFE"/>
<path d="M-220 645C-186.121 542.798 -17.2527 359.524 387.186 444.042C791.625 528.561 912.974 365.749 923.094 273.778C925.88 139.375 1047.96 -81.6133 1514 109.652" stroke="#9BFDFE"/>
<path d="M-207 654C-173.121 551.798 -4.25268 368.524 400.186 453.042C804.625 537.561 925.974 374.749 936.094 282.778C938.88 148.375 1060.96 -72.6133 1527 118.652" stroke="#93FDFE"/>
<path d="M-195 662C-161.121 559.798 7.74732 376.524 412.186 461.042C816.625 545.561 937.974 382.749 948.094 290.778C950.88 156.375 1072.96 -64.6133 1539 126.652" stroke="#8AFDFE"/>
<path d="M-182 671C-148.121 568.798 20.7473 385.524 425.186 470.042C829.625 554.561 950.974 391.749 961.094 299.778C963.88 165.375 1085.96 -55.6133 1552 135.652" stroke="#82FDFD"/>
<path d="M-169 679C-135.121 576.798 33.7473 393.524 438.186 478.042C842.625 562.561 963.974 399.749 974.094 307.778C976.88 173.375 1098.96 -47.6133 1565 143.652" stroke="#79FCFD"/>
<path d="M-156 688C-122.121 585.798 46.7473 402.524 451.186 487.042C855.625 571.561 976.974 408.749 987.094 316.778C989.88 182.375 1111.96 -38.6133 1578 152.652" stroke="#70FCFD"/>
<path d="M-144 696C-110.121 593.798 58.7473 410.524 463.186 495.042C867.625 579.561 988.974 416.749 999.094 324.778C1001.88 190.375 1123.96 -30.6133 1590 160.652" stroke="#68FCFD"/>
<path d="M-131 705C-97.1208 602.798 71.7473 419.524 476.186 504.042C880.625 588.561 1001.97 425.749 1012.09 333.778C1014.88 199.375 1136.96 -21.6133 1603 169.652" stroke="#5FFCFC"/>
<path d="M-118 713C-84.1208 610.798 84.7473 427.524 489.186 512.042C893.625 596.561 1014.97 433.749 1025.09 341.778C1027.88 207.375 1149.96 -13.6133 1616 177.652" stroke="#57FBFC"/>
<path d="M-105 722C-71.1208 619.798 97.7473 436.524 502.186 521.042C906.625 605.561 1027.97 442.749 1038.09 350.778C1040.88 216.375 1162.96 -4.61333 1629 186.652" stroke="#4EFBFC"/>
<path d="M-93 730C-59.1208 627.798 109.747 444.524 514.186 529.042C918.625 613.561 1039.97 450.749 1050.09 358.778C1052.88 224.375 1174.96 3.38667 1641 194.652" stroke="#46FBFC"/>
<path d="M-80 739C-46.1208 636.798 122.747 453.524 527.186 538.042C931.625 622.561 1052.97 459.749 1063.09 367.778C1065.88 233.375 1187.96 12.3867 1654 203.652" stroke="#3DFBFB"/>
<path d="M-67 747C-33.1208 644.798 135.747 461.524 540.186 546.042C944.625 630.561 1065.97 467.749 1076.09 375.778C1078.88 241.375 1200.96 20.3867 1667 211.652" stroke="#35FAFB"/>
<path d="M-54 756C-20.1208 653.798 148.747 470.524 553.186 555.042C957.625 639.561 1078.97 476.749 1089.09 384.778C1091.88 250.375 1213.96 29.3867 1680 220.652" stroke="#2CFAFB"/>
<path d="M-42 764C-8.12078 661.798 160.747 478.524 565.186 563.042C969.625 647.561 1090.97 484.749 1101.09 392.778C1103.88 258.375 1225.96 37.3867 1692 228.652" stroke="#24FAFB"/>
<path d="M-29 773C4.87922 670.798 173.747 487.524 578.186 572.042C982.625 656.561 1103.97 493.749 1114.09 401.778C1116.88 267.375 1238.96 46.3867 1705 237.652" stroke="#1BFAFA"/>
<path d="M-16 781C17.8792 678.798 186.747 495.524 591.186 580.042C995.625 664.561 1116.97 501.749 1127.09 409.778C1129.88 275.375 1251.96 54.3867 1718 245.652" stroke="#13F9FA"/>
</g>
</svg>
